<svg xmlns="http://www.w3.org/2000/svg" fill="hsl(162 100% 7%)" viewBox="0 0 151 36">
  <path
    d="m34.6912 18.688-7.222 13.156c-.2766.3647-.6818.6104-1.133.687h-14.443c-.4513-.0766-.8565-.3223-1.133-.687L3.53817 18.688c-.16223-.4443-.16223-.9317 0-1.376L10.7602 4.156c.2765-.36473.6817-.61039 1.133-.687h14.443c.4512.07661.8564.32227 1.133.687l7.221 13.156c.1622.4443.1622.9317 0 1.376m3.084-2.694-7.674-13.989C29.75 1.43042 29.2669.948371 28.6916.599448 28.1163.250525 27.4655.0449397 26.7942 0h-15.358c-.6704.0458756-1.3199.251901-1.89411.60078-.57421.34888-1.05635.83043-1.40592 1.40422L.454167 15.995C.155175 16.6213 0 17.3065 0 18.0005s.155175 1.3792.454167 2.0055L8.13217 33.995c.34939.5744.83174 1.0564 1.40641 1.4053.57462.349 1.22482.5546 1.89562.5997h15.358c.6704-.0454 1.3201-.2512 1.8944-.6001.5743-.349 1.0564-.8308 1.4056-1.4049l7.679-13.989c.299-.6263.4541-1.3115.4541-2.0055s-.1551-1.3792-.4541-2.0055" />
  <path
    d="M7.703 20.735h11.412v-2.444H7.703v2.444Zm2.238 4.583h9.174v-2.444H9.941v2.444Zm2.237 4.58h6.937v-2.442h-6.937v2.442ZM62.07 16.803c1.7521 3.2478 3.3212 6.591 4.7 10.014.04.0764.0639.1602.0701.2463.0061.086-.0054.1724-.0341.2537-.0273.0798-.0721.1524-.1311.2127-.059.0602-.1307.1064-.2099.1353l-.871.4c-.0692.0409-.1474.0643-.2278.0682-.0803.0038-.1604-.0121-.2332-.0462-.075-.0364-.1409-.0892-.1928-.1544-.0519-.0653-.0885-.1413-.1072-.2226-1.3077-3.3784-2.7979-6.6832-4.464-9.9-.0501-.0719-.0841-.1539-.0996-.2402-.0156-.0863-.0123-.1749.0096-.2598.0196-.0826.0577-.1598.1114-.2256s.1216-.1186.1986-.1544l.7-.4c.0639-.0468.1381-.0777.2163-.0902.0783-.0126.1584-.0063.2337.0182.077.0268.1469.0706.2047.1281.0578.0574.102.1271.1293.2039m-6.816.923c-1.003 3.5302-2.4987 6.9014-4.443 10.014-.036.0717-.0871.1347-.1498.1847-.0626.0501-.1354.086-.2132.1053-.0764.0178-.1559.0181-.2325.0008-.0765-.0173-.1482-.0518-.2095-.1008l-.675-.4c-.0784-.0346-.1474-.0874-.2013-.154-.0539-.0666-.0912-.1451-.1087-.229-.0194-.0854-.0192-.1742.0005-.2596.0198-.0853.0586-.1651.1135-.2334 1.7678-3.0243 3.1288-6.2687 4.048-9.649.0111-.0843.0416-.1648.0891-.2353.0476-.0705.1109-.1289.1849-.1707.0712-.0398.1514-.0608.233-.0608s.1618.021.233.0608l.958.355c.0786.0194.1517.0565.2138.1085.062.052.1113.1175.1442.1915.0358.0757.0554.158.0574.2417.0021.0837-.0134.1669-.0454.2443m11.89-4.835v.047c.0121.0855.0053.1726-.0199.2552-.0252.0826-.0683.1587-.1261.2228-.0548.061-.1238.1077-.2009.1357-.0771.0281-.1599.0368-.2411.0253H49.135c-.0812.0115-.164.0028-.2411-.0253-.0771-.028-.1461-.0747-.2009-.1357-.0578-.0641-.1009-.1402-.1261-.2228-.0252-.0826-.032-.1697-.0199-.2552v-.047c-.0121-.0855-.0053-.1726.0199-.2552.0252-.0826.0683-.1587.1261-.2228.0548-.061.1238-.1076.2009-.1357.0771-.0281.1599-.0368.2411-.0253h7.6V8.49201c-.0121-.08551-.0053-.17263.0199-.25523.0252-.08259.0683-.15864.1261-.22277.0548-.06104.1238-.10765.2009-.13573.0771-.02808.1599-.03676.2411-.02527h1.047c.0812-.01149.164-.00281.2411.02527s.1461.07469.2009.13573c.0578.06413.1009.14018.1261.22277.0252.0826.032.16972.0199.25523V12.256h7.6c.0812-.0115.164-.0028.2411.0253s.1461.0747.2009.1357c.0578.0641.1009.1402.1261.2228.0252.0826.032.1697.0199.2552m19.375 9.027h5.1v-3.511h-5.1v3.511Zm0-4.643h5.1v-3.346h-5.1v3.346Zm-6.467-4.548h4.987c.8419-.8413 1.6345-1.7304 2.374-2.663h-5.6c-.5229.9291-1.1125 1.8191-1.764 2.663h.003Zm-.109 4.548h4.442v-3.346h-4.443l.001 3.346Zm-.22 4.643h4.659v-3.511h-4.44c-.014 1.1733-.0874 2.3451-.22 3.511h.001Zm3-13.71599c-.088.189-.176.424-.305.707h6.576c.0812-.01149.164-.00281.2411.02527s.1461.07469.2009.13573c.0578.06375.1008.13945.1261.22172.0252.08227.032.16908.0199.25428v.047c.0116.28599-.0729.56759-.24.79999-.6428.818-1.3337 1.597-2.069 2.333h5.9c.0812-.0115.164-.0028.2411.0253s.1461.0747.2009.1357c.0578.0638.1008.1395.1261.2217.0252.0823.032.1691.0199.2543v12.349c0 2.5-.283 2.828-2.874 2.828-.261 0-1.154-.047-2.635-.094-.0837.0051-.1675-.0081-.2456-.0386-.078-.0306-.1485-.0777-.2066-.1382-.058-.0605-.1022-.133-.1294-.2122-.0273-.0793-.037-.1636-.0284-.247-.022-.4.2-.613.61-.589 1.393.047 2.178.118 2.4.118.936 0 .958-.024.958-1.555v-2.71H79.553c-.2857 1.919-.9667 3.7579-2 5.4-.0341.0772-.0866.1448-.1528.1971-.0662.0523-.1442.0876-.2272.1029-.082.0134-.1661.0059-.2444-.0219-.0784-.0278-.1484-.075-.2036-.1371l-.632-.566c-.1307-.0964-.2189-.2398-.246-.4-.0288-.1629.0048-.3307.094-.47 1.328-2.357 1.851-5.161 1.851-10.016v-1.914l-.914.8c-.0525.0676-.1232.1189-.2038.1478-.0806.0288-.1677.0341-.2512.0152-.0847-.0216-.1619-.0657-.2236-.1277-.0616-.062-.1053-.1395-.1264-.2243l-.22-.471c-.0814-.142-.1083-.3087-.076-.4691.0324-.1604.122-.3036.252-.4029 2.0745-1.9167 3.7025-4.2657 4.769-6.88099.0222-.07492.059-.14471.1083-.20538.0492-.06067.11-.11102.1787-.14818.0687-.03716.1441-.06039.2219-.06836.0777-.00797.1563-.00052.2311.02192l.806.16499c.0879.00381.173.03165.2462.08049.0732.04884.1316.11681.1688.19652.04.08237.0589.17342.0549.26491-.0041.09149-.0308.18053-.0779.25909h-.011Zm27.766 3.63299c.806.4002 1.591.8411 2.352 1.321.526-.465 1.007-.9786 1.437-1.534-.392-.283-.827-.637-1.372-1.038-.767.4875-1.576.9062-2.417 1.251Zm4.746-3.23201c-.382.40988-.789.79594-1.219 1.156l1.176.87301c.076.0427.14.1028.188.1753.048.0725.078.1554.087.2417.011.0872.002.1758-.027.2589-.029.0831-.076.1584-.139.2201l-.261.354.022.024c.089.0189.172.0629.237.1269.066.0639.111.1451.132.2341.021.0891.017.1822-.013.2686s-.084.1625-.156.2194c-.383.424-.798.8185-1.241 1.18l1.176.873c.074.0444.136.1052.183.1777.046.0725.075.1547.085.2403.011.0865.002.1744-.025.2571-.028.0827-.073.1582-.134.2209l-.065.094c-.041.073-.099.1354-.168.1823-.07.0468-.149.0769-.232.0877-.083.0086-.167-.0027-.244-.0332-.078-.0305-.147-.0791-.202-.1418-.653-.519-1.154-.9-1.481-1.156-.713.4558-1.463.8506-2.242 1.18-.133.0687-.285.0898-.432.0598-.147-.03-.279-.1093-.374-.2248-.283-.283-.2-.59.22-.779.586-.296 1.154-.6269 1.7-.991-.632-.4-1.154-.731-1.568-.944-.084-.0306-.158-.0816-.217-.1483-.059-.0668-.1-.1472-.12-.2339-.02-.0868-.018-.1771.006-.2628.024-.0857.069-.1641.131-.228l.176-.236-.261-.26c-.076-.0533-.136-.1273-.171-.2133-.036-.0859-.047-.1803-.031-.2719.017-.0917.058-.1769.121-.2456.063-.0687.144-.118.234-.1422.596-.278 1.165-.6097 1.7-.99101-.632-.4-1.154-.731-1.568-.944-.082-.03026-.155-.08083-.211-.14696-.057-.06613-.096-.14564-.114-.23104-.021-.08755-.02-.17883.003-.26595.022-.08711.066-.16745.126-.23405.038-.06068.088-.113.147-.15375.058-.04075.125-.06908.195-.08325.07-.01273.142-.01039.211.00685s.133.049.189.09315c.719.33565 1.417.71399 2.09 1.133.402-.35213.78-.73064 1.132-1.133.082-.13098.212-.22574.361-.2651.15-.03937.309-.02038.445.0531l.261.118c.414.189.5.519.2.849m-10.8.519c1.241-.142 2.7-.425 4.377-.779.075-.0302.155-.04144.235-.03272.08.00873.157.03715.223.08272.069.04803.126.11087.167.1839.042.07302.066.15438.072.2381.023.08092.028.16579.015.24882-.013.08302-.044.16222-.091.23218-.044.0669-.103.12234-.172.16166-.07.03933-.148.06139-.228.06434-.98.212-1.981.378-2.94.54301l.044 1.274h2.722c.081-.0115.164-.0028.241.0253.077.028.146.0747.201.1357.058.0638.101.1395.126.2217.025.0823.032.1691.02.2543 0 .1887-.196.283-.588.283h-2.678l.065 1.722h2.613c.081-.0115.164-.0028.241.0253.077.028.146.0747.201.1357.058.0638.101.1395.126.2217.025.0823.032.1691.02.2543 0 .189-.2.307-.588.307h-2.57l.065 1.793h12.581l.044-1.793h-2.549c-.081.0115-.164.0028-.241-.0253-.077-.0281-.146-.0747-.201-.1357-.058-.0638-.101-.1395-.126-.2218-.025-.0822-.032-.169-.02-.2542 0-.189.2-.307.588-.307h2.593l.044-1.722h-2.635c-.081.0115-.164.0028-.241-.0253-.077-.0281-.146-.0747-.201-.1357-.058-.0638-.101-.1395-.126-.2218-.025-.0822-.032-.169-.02-.2542 0-.1887.196-.283.588-.283h2.678l.065-1.65201h-2.874c-.081.01148-.164.00281-.241-.02527-.077-.02808-.146-.07469-.201-.13573-.058-.06384-.1-.13958-.126-.22184-.025-.08227-.031-.16904-.019-.25416 0-.307.2-.472.588-.472h4.506c.083-.01114.168-.00144.246.02823.079.02968.149.07839.204.14177.058.06634.1.14472.124.22947.024.08474.029.17373.014.26053l-.3 7.47901h.7c.081-.0115.164-.0028.241.0253.077.028.146.0747.201.1357.058.0638.101.1395.126.2217.025.0823.032.1691.02.2543v2.6c.012.0852.005.172-.02.2542-.025.0823-.068.158-.126.2218-.055.061-.124.1076-.201.1357-.077.0281-.16.0368-.241.0253h-.98c-.081.0115-.164.0028-.241-.0253-.077-.0281-.146-.0747-.201-.1357-.058-.0638-.101-.1395-.126-.2218-.025-.0822-.032-.169-.02-.2542v-2.148h-15.18v2.146c.012.0852.005.172-.02.2542-.025.0823-.068.158-.126.2218-.055.061-.124.1076-.201.1357-.077.0281-.16.0368-.241.0253h-.98c-.081.0115-.164.0028-.241-.0253-.077-.0281-.146-.0747-.201-.1357-.058-.0638-.101-.1395-.126-.2218-.025-.0822-.032-.169-.02-.2542v-2.6c-.012-.0852-.005-.172.02-.2543.025-.0822.068-.1579.126-.2217.055-.061.124-.1077.201-.1357.077-.0281.16-.0368.241-.0253h.675l-.283-6.91301c-.012-.08374-.007-.16911.014-.25093.022-.08182.06-.15839.112-.22507.05-.06384.113-.11569.185-.1517.073-.03601.152-.05526.233-.0563M119.047 20.02c.012.15-.018.3004-.087.4339-.07.1336-.175.2448-.305.3211-1.649 1.0849-3.389 2.0244-5.2 2.808h8.445c.081-.0115.164-.0028.241.0253.077.028.146.0747.201.1357.058.0638.101.1395.126.2217.025.0823.032.1691.02.2543 0 .354-.2.543-.588.543h-7.819v2.407c0 1.368-.327 1.6-2.853 1.6-.871 0-1.872-.024-3.027-.094-.079.0014-.158-.0142-.231-.0457-.073-.0316-.138-.0784-.191-.1373-.112-.1239-.172-.2868-.166-.454-.022-.4.2-.613.61-.59 1.415.047 2.33.118 2.766.118.958 0 .849.118.849-.967v-1.84h-8.449c-.081.0115-.164.0028-.241-.0253-.077-.0281-.146-.0747-.201-.1357-.058-.0638-.101-.1395-.126-.2218-.025-.0822-.032-.169-.02-.2542 0-.354.2-.543.588-.543h8.449v-.448c-.012-.0852-.005-.172.02-.2543.025-.0822.068-.1579.126-.2217.055-.061.124-.1077.201-.1357.077-.0281.16-.0368.241-.0253h.61c1.259-.5723 2.488-1.2102 3.68-1.911h-9.886c-.081.0115-.164.0028-.241-.0253-.077-.0281-.146-.0747-.201-.1357-.058-.0638-.101-.1395-.126-.2218-.025-.0822-.032-.169-.02-.2542 0-.283.2-.448.588-.448h11.63c.392 0 .588.189.588.519m27.999-5.584c.01.0836.001.1683-.025.2483-.026.0799-.07.1532-.127.2147-.055.0586-.123.103-.199.1293-.076.0263-.157.0338-.236.0217h-6.032c-.081.0115-.164.0028-.241-.0253-.077-.028-.146-.0747-.201-.1357-.058-.0639-.101-.1398-.126-.2222-.025-.0824-.032-.1694-.02-.2548 0-.378.196-.567.588-.567h6.03c.08-.0099.161-.0015.237.0246.076.0262.145.0694.202.1263.056.057.099.1262.125.2023.026.0761.034.1571.024.2368m2.549-3.542v3.164c.012.0854.005.1724-.02.2548-.025.0824-.068.1583-.126.2222-.055.061-.124.1077-.201.1357-.077.0281-.16.0368-.241.0253h-1c-.081.0115-.164.0028-.241-.0253-.077-.028-.146-.0747-.201-.1357-.058-.0639-.101-.1398-.126-.2222-.025-.0825-.032-.1694-.02-.2548v-2.6h-7.993v2.6c.012.0854.005.1723-.02.2548-.025.0824-.068.1583-.126.2222-.055.061-.124.1077-.201.1357-.077.0281-.16.0368-.241.0253h-.936c-.081.0115-.164.0028-.241-.0253-.077-.028-.146-.0747-.201-.1357-.058-.0639-.101-.1398-.126-.2222-.025-.0825-.032-.1694-.02-.2548v-3.162c-.012-.0853-.005-.1723.02-.2547.025-.0825.068-.1583.126-.2223.055-.061.124-.1076.201-.1357.077-.0281.16-.0368.241-.0253h4.2V8.27201c-.012-.08535-.005-.17234.02-.25478.025-.08244.068-.15831.126-.22222.055-.06103.124-.10765.201-.13572.077-.02808.16-.03676.241-.02528h1.045c.081-.01148.164-.0028.241.02528.077.02807.146.07469.201.13572.058.06395.101.13982.126.22225.025.08243.032.1694.02.25475V10.255h4.681c.081-.0115.164-.0028.241.0253.077.0281.146.0747.201.1357.058.0639.101.1398.126.2222.025.0825.032.1695.02.2548m-.305 7.886c.012.0852.005.172-.02.2543-.025.0822-.068.1579-.126.2217-.055.061-.124.1077-.201.1357-.077.0281-.16.0368-.241.0253h-2.983v6.588c0 1.086-.153 1.063 1.067 1.063.7 0 .806 0 1.023-.638.158-.992.231-1.9956.22-3 .022-.449.24-.661.632-.614l.849.094c.081.0013.16.0208.233.057.072.0361.135.0881.185.152.052.0667.09.1432.112.225.022.0818.027.1672.015.251-.022.708-.022 1.133-.088 1.842.045.4448-.001.8942-.136 1.3205s-.355.8205-.648 1.1585c-.296.1864-.632.2998-.98.331-.492.0504-.986.0741-1.481.071-2.722 0-3.157-.283-3.157-1.724v-7.176h-1.263c-.044 4.935-1.459 7.225-5.923 9.067-.068.0368-.143.0587-.22.0644-.077.0057-.154-.005-.227-.0314-.074-.0279-.142-.0703-.2-.1247-.058-.0544-.105-.1198-.137-.1923l-.065-.142c-.054-.0702-.09-.1522-.105-.2391-.016-.087-.011-.1764.015-.2609.024-.0834.068-.1592.13-.22.062-.0609.138-.1046.222-.127 3.2-1.393 4.312-3.377 4.4-7.792h-2.026c-.081.0115-.164.0028-.241-.0253-.077-.028-.146-.0747-.201-.1357-.058-.0639-.101-.1398-.126-.2222-.025-.0825-.032-.1694-.02-.2548-.01-.0836-.001-.1684.025-.2484.027-.0799.07-.1532.128-.2146.055-.0587.123-.1031.199-.1294.076-.0263.157-.0337.236-.0216h10.539c.079-.0121.16-.0047.236.0216.076.0263.144.0707.199.1294.058.0614.101.1347.128.2146.026.08.035.1648.025.2484m-12.281-8.409c-1.154 3.188-1.677 4.321-2.09 5.454 1.295 1.4351 1.996 3.3092 1.96 5.242 0 1.983-.871 3-3.049 3-.074.0036-.147-.0081-.216-.0343-.069-.0261-.131-.0662-.184-.1177-.112-.1096-.178-.2575-.185-.414-.065-.378.132-.614.545-.614h-.176c.936 0 1.306-.425 1.306-2.172.004-1.6269-.558-3.2045-1.589-4.463-.102-.119-.166-.2653-.186-.4206-.019-.1554.008-.313.077-.4534.778-1.8229 1.44-3.6933 1.982-5.59999h-2.593V27.988c.012.0853.006.1722-.019.2547-.025.0824-.068.1583-.126.2223-.055.0611-.124.1077-.201.1357-.077.0281-.16.0368-.241.0253h-.74c-.081.0115-.164.0028-.241-.0253-.077-.028-.146-.0746-.201-.1357-.058-.0639-.101-.1398-.126-.2222-.025-.0825-.032-.1694-.02-.2548V9.28801c-.012-.08535-.005-.17232.02-.25475.025-.08243.068-.1583.126-.22225.055-.06103.124-.10765.201-.13572.077-.02808.16-.03676.241-.02528h5.291c.081-.01148.164-.0028.241.02528.077.02807.146.07469.201.13572.058.06391.101.13978.126.22222.025.08244.032.16943.02.25478v.284c0 .27384-.052.54519-.152.79999" />
</svg>