<svg xmlns="http://www.w3.org/2000/svg" fill="hsl(165, 100%, 40%)" version="1.2" viewBox="0 0 100 100">
  <path
    d="M71.6 4.6c3.3.7 5.5 2.7 7.7 6.7.7 1.3 2.2 4.1 3.4 6.2 1.2 2.1 3.2 5.8 4.4 8.1 1.3 2.3 3.1 5.7 4.1 7.4 7.7 14.2 7.3 13.2 7.7 15.9.4 3.5.3 3.7-7.2 17.4-5.3 9.8-9.8 17.9-11.8 21.6-3 5.4-4.8 7.1-8.4 7.9-1.9.3-40.9.3-42.6 0-3.5-.8-5.4-2.6-8-7.3-1-1.9-2-3.7-6.7-12.2-1.3-2.3-3.3-6-4.4-8.2-2.5-4.4-5.4-9.8-6.6-11.9q-3.3-6.1.1-12.3c.7-1.2 1.6-2.8 6.5-11.7 1.2-2.3 3-5.6 4-7.4 2.3-4.2 5.8-10.5 7.2-13.2 2.4-4.3 4.4-6.1 7.7-7 1.7-.4 41.1-.4 42.9 0zM69 13.1H31.5l-.8.3c-1.1.5-1.7 1.2-2.6 3-.9 1.7-4.2 7.6-4.8 8.8-.3.4-1.3 2.2-2.2 3.9-1.5 2.8-4.6 8.5-5.8 10.5-.2.4-1.2 2.2-2.2 4-2.9 5.3-2.8 5-2.8 6.6 0 1.5-.1 1.2 2.8 6.5 1 1.9 2.1 3.7 2.2 4 2 3.5 4.3 7.9 5.8 10.5.9 1.8 1.9 3.6 2.2 4 .6 1 3.8 6.9 4.8 8.8.9 1.7 1.5 2.4 2.6 2.9l.8.4H69l.8-.4c1.1-.5 1.6-1.1 3.1-3.8.7-1.2 2.1-3.9 3.2-5.8 1-1.9 2-3.8 2.2-4.1.2-.4 1.2-2.1 2.2-3.9.9-1.8 2.5-4.7 3.5-6.4 6.5-11.9 6.2-11.4 6.2-12.7 0-1.4.4-.6-6.3-12.8-3.7-6.8-5.2-9.6-5.7-10.4-.2-.4-1.2-2.2-2.1-3.9-1-1.8-2.4-4.4-3.1-5.7-1.5-2.8-2.1-3.4-3.2-4zm-18.9 38c0-.1.1 1.3.1 3.1v3.1h-29v-6.1l14.4-.1h14.5zM50 62.6v6H26.8v-6zm0 11.8v6.1H32.4v-6.1z" />
</svg>